# xmcd
#
# Track frame offsets: 
#        150
#        18151
#        31353
#        45093
#        62375
#        80396
#        109109
#        133412
#        149402
#        161384
#        184843
#        193500
#        200389
#        205301
#        222785
#        235131
#
# Disc length: 3444 seconds
#
# Revision: 0
# Processed by: cddbd v1.5.2PL0 Copyright (c) Steve Scherf et al.
# Submitted via: ExactAudioCopy v0.99pb4
#
DISCID=d60d7210
DTITLE=Julma-Henri and Syrj‰ytyneet - SRJTNT Vol.1
DYEAR=2008
DGENRE=Rap
TTITLE0=Oulu-Hellsinki
TTITLE1=Min‰ Rakastan Sinua
TTITLE2=Lintumies
TTITLE3=Viimeinen Rasti
TTITLE4=Avaa Silm‰t
TTITLE5=Pimeess‰ Hapuillen
TTITLE6=Ei Ikin‰ En‰‰
TTITLE7=Porthanink.
TTITLE8=Huonoa Seuraa
TTITLE9=Voi Voi
TTITLE10=Pohjalla
TTITLE11=Glitteri‰
TTITLE12=Kill For Peace
TTITLE13=Voima
TTITLE14=En Sano
TTITLE15=8
EXTD=
EXTT0=
EXTT1=
EXTT2=
EXTT3=
EXTT4=
EXTT5=
EXTT6=
EXTT7=
EXTT8=
EXTT9=
EXTT10=
EXTT11=
EXTT12=
EXTT13=
EXTT14=
EXTT15=
PLAYORDER=
